# xmcd CD database file
#
# Track frame offsets:
#        150
#        22552
#        41220
#        55730
#        72417
#        90507
#        103525
#        119695
#        135742
#        147610
#        163104
#        178233
#
# Disc length: 2528 seconds
#
# Revision: 0
# Processed by: cddbd v1.5.2PL0 Copyright (c) Steve Scherf et al.
# Submitted via: CUERipper 2.1.5
#
DISCID=ac09de0c
DTITLE=Carol Douglas - The Carol Douglas Album
DYEAR=1975
DGENRE=R&B
TTITLE0=Doctor's Orders
TTITLE1=A Friend In Need
TTITLE2=Baby Don't Let This Good Love Die
TTITLE3=Take Me (Make Me Lose Control)
TTITLE4=A Hurricane Is Coming Tonite
TTITLE5=I Fell In Love With Love
TTITLE6=All Night Long
TTITLE7=Will We Make It Tonight
TTITLE8=Boy You Know Just What I'm After
TTITLE9=Doctor's Orders (7in Version)
TTITLE10=Baby Don't Let This Good Love Die (7in Version)
TTITLE11=A Hurricane Is Coming Tonite (7in Version)
EXTD=
EXTT0=
EXTT1=
EXTT2=
EXTT3=
EXTT4=
EXTT5=
EXTT6=
EXTT7=
EXTT8=
EXTT9=
EXTT10=
EXTT11=
PLAYORDER=
